<svg xmlns="http://www.w3.org/2000/svg" viewBox="0 0 7.911 7.73" height="29.216" width="29.901"><path d="M3.969 0A3.963 3.963 0 000 3.969a3.966 3.966 0 002.725 3.757c.212.026.265-.08.265-.185v-.688c-1.111.238-1.35-.53-1.35-.53-.185-.45-.45-.582-.45-.582-.37-.238.027-.238.027-.238.397.027.609.397.609.397.344.609.926.424 1.164.318.026-.265.132-.424.264-.53-.873-.105-1.799-.45-1.799-1.957 0-.424.159-.794.397-1.059-.053-.106-.185-.502.027-1.058 0 0 .343-.106 1.084.397.318-.08.662-.132 1.006-.132s.688.052 1.005.132c.767-.503 1.085-.397 1.085-.397.212.556.08.952.026 1.058.265.265.397.635.397 1.059 0 1.534-.926 1.852-1.799 1.958.132.132.265.37.265.74v1.085c0 .106.08.238.264.185a3.942 3.942 0 002.7-3.757C7.937 1.772 6.164 0 3.968 0z" clip-rule="evenodd" fill="#181616" fill-rule="evenodd"/></svg>
